<svg xmlns="http://www.w3.org/2000/svg" width="259.176" height="53.159" viewBox="0 0 259.176 53.159"><g transform="translate(-1283.959 -1646.655)"><g transform="translate(1283.959 1646.655)"><g transform="translate(100.367 10.663)"><path d="M1268.89,1762.32h3.3a.46.46,0,0,0,.432-.616l-10.857-29.977a.46.46,0,0,0-.432-.3H1257.3a.46.46,0,0,0-.432.3l-10.9,29.977a.46.46,0,0,0,.432.617h3.3a.459.459,0,0,0,.432-.3l2.278-6.3a.46.46,0,0,1,.432-.3h12.908a.46.46,0,0,1,.433.3l2.277,6.3A.46.46,0,0,0,1268.89,1762.32Zm-4.631-10.21h-9.93a.46.46,0,0,1-.433-.615l4.964-13.87a.46.46,0,0,1,.866,0l4.965,13.87A.46.46,0,0,1,1264.259,1752.11Zm12.036-17.567h7.6a.46.46,0,0,1,.46.46v26.858a.46.46,0,0,0,.46.46h3.137a.46.46,0,0,0,.46-.46V1735a.46.46,0,0,1,.46-.46h7.553a.46.46,0,0,0,.46-.46v-2.38a.46.46,0,0,0-.46-.46h-20.126a.46.46,0,0,0-.46.46v2.38A.46.46,0,0,0,1276.295,1734.543Zm55.271,12.217c0-9.319-6.822-15.873-15.605-15.873-8.739,0-15.605,6.554-15.605,15.873s6.866,15.873,15.605,15.873C1324.745,1762.633,1331.566,1756.078,1331.566,1746.76Zm-27.063,0c0-7.624,4.9-12.35,11.459-12.35s11.459,4.726,11.459,12.35c0,7.58-4.9,12.35-11.459,12.35S1304.5,1754.34,1304.5,1746.76Zm32.874,15.56h3.137a.46.46,0,0,0,.46-.46v-20.434a.46.46,0,0,1,.88-.187l9.3,20.809a.46.46,0,0,0,.42.272h2.253a.459.459,0,0,0,.42-.273l9.26-20.761a.46.46,0,0,1,.88.187v20.386a.46.46,0,0,0,.46.46h3.137a.46.46,0,0,0,.46-.46v-29.933a.46.46,0,0,0-.46-.46h-3.565a.46.46,0,0,0-.42.272l-10.876,24.293a.46.46,0,0,1-.84,0l-10.872-24.293a.46.46,0,0,0-.42-.272h-3.612a.46.46,0,0,0-.46.46v29.933A.46.46,0,0,0,1337.377,1762.32Zm44.346-3.529c0-4.793-6.985-2.712-6.985-6.057,0-1.393,1.1-2.118,2.489-2.081a2.346,2.346,0,0,1,2.42,1.557.467.467,0,0,0,.438.32h.957a.462.462,0,0,0,.446-.58c-.437-1.648-1.966-2.745-4.185-2.745-2.563,0-4.291,1.449-4.291,3.585,0,4.815,7,2.582,7,6.074,0,1.226-.966,2.155-2.6,2.155a2.4,2.4,0,0,1-2.669-2.094q0-.03-.007-.062h-1.3a.462.462,0,0,0-.455.54c.312,1.837,2.052,3.046,4.427,3.046,2.8,0,4.308-1.82,4.308-3.659Zm6.966,1.412c0-2.876-4.191-1.627-4.191-3.636,0-.836.657-1.27,1.494-1.249a1.407,1.407,0,0,1,1.422.858.45.45,0,0,0,.418.268H1388a.46.46,0,0,0,.423-.645,2.324,2.324,0,0,0-2.39-1.35c-1.538,0-2.574.87-2.574,2.151,0,2.887,4.2,1.549,4.2,3.645,0,.736-.579,1.293-1.56,1.293a1.439,1.439,0,0,1-1.6-1.257c0-.012,0-.024,0-.036h-.543a.462.462,0,0,0-.437.609,2.532,2.532,0,0,0,2.586,1.542,2.328,2.328,0,0,0,2.569-2.058c.005-.045.009-.089.011-.134Z" transform="translate(-1245.936 -1730.739)" fill="#1ee2bd"/><rect width="31.002" height="3.715" rx="1.858" transform="translate(127.807)" fill="#1ee2bd"/><path d="M1884.627,1767.072h.11a.46.46,0,0,0,.46-.46v-7.137a.46.46,0,0,0-.46-.46h-1.18a.46.46,0,0,0-.46.46v.006a.46.46,0,0,0,.46.46h.151a.46.46,0,0,1,.46.46v6.212A.46.46,0,0,0,1884.627,1767.072Zm7.161-6.142a.461.461,0,0,0,.432-.624,2.278,2.278,0,0,0-2.314-1.461h0c-2.04,0-2.849,1.56-2.849,4.09,0,2.441.569,4.157,2.954,4.157a2.479,2.479,0,0,0,2.63-2.675,2.424,2.424,0,0,0-2.145-2.674,2.389,2.389,0,0,0-.374-.012,2.3,2.3,0,0,0-1.4.372.459.459,0,0,1-.694-.472c.224-1.4.867-1.94,1.876-1.94a1.391,1.391,0,0,1,1.458.937.451.451,0,0,0,.43.3Zm-1.885,1.661a1.844,1.844,0,0,1,.286,3.646,1.665,1.665,0,0,1-.237.006,1.769,1.769,0,0,1-1.894-1.906,1.713,1.713,0,0,1,1.674-1.75c.058,0,.117,0,.175.005Z" transform="translate(-1735.399 -1752.21)" fill="#1ee2bd"/></g><path d="M1488.75,1380.906a1.574,1.574,0,0,0-2.156-.553l-19.068,11.288-20.069-11.587a2.986,2.986,0,0,0-2.986,0l-20.432,11.8a2.986,2.986,0,0,0-1.493,2.586v23.593c0,.078,0,.155.01.232l-18.825,11.144a1.574,1.574,0,1,0,1.6,2.708l19.068-11.288,20.069,11.587a2.986,2.986,0,0,0,2.986,0l20.432-11.8a2.987,2.987,0,0,0,1.493-2.586v-23.593c0-.078,0-.155-.01-.232l18.825-11.144A1.573,1.573,0,0,0,1488.75,1380.906Zm-22.515,37.032-20.271,11.7-20.271-11.7v-23.407l20.271-11.7,20.271,11.7Z" transform="translate(-1402.959 -1379.655)" fill="#1ee2bd"/><path d="M1517.891,1454.242a1.573,1.573,0,0,0-1.573,1.573v15.432a1.573,1.573,0,1,0,3.147,0v-15.432A1.573,1.573,0,0,0,1517.891,1454.242Z" transform="translate(-1490.04 -1436.952)" fill="#1ee2bd"/></g></g></svg>