<svg xmlns="http://www.w3.org/2000/svg" xmlns:xlink="http://www.w3.org/1999/xlink" width="259.176" height="61.896" viewBox="0 0 259.176 61.896"><defs><linearGradient id="a" y1="0.5" x2="1.011" y2="0.534" gradientUnits="objectBoundingBox"><stop offset="0" stop-color="#00dd83"/><stop offset="0.479" stop-color="#1ee2bd"/><stop offset="1" stop-color="#8d77fe"/></linearGradient></defs><g transform="translate(-959.824 -379)"><text transform="translate(1166 424)" fill="#fff" font-size="40" font-family="Poppins-Bold, Poppins" font-weight="700" letter-spacing="0.1em"><tspan x="-52.54" y="0">napi</tspan></text><path d="M566.235,1197.006a19.913,19.913,0,0,0-31.089,3.74,8.073,8.073,0,0,1-12.616,1.57l-22.8-22.782a31.062,31.062,0,0,0-18.928-10.086,29.615,29.615,0,0,0-12.6.895,30.94,30.94,0,0,0-22.117,25.083,29.836,29.836,0,0,0,.951,13.548A30.942,30.942,0,0,0,472.5,1230.73a29.587,29.587,0,0,0,12.57-.891,30.881,30.881,0,0,0,20.879-19.952q.457-1.367.784-2.753a6.177,6.177,0,0,1,10.378-2.94l20.87,20.855.1.107c.037.037.076.073.114.111l.008.008h0a19.9,19.9,0,0,0,28.029-28.268Zm-66.556-8.407a25.742,25.742,0,1,1-5.578-7.427l-.014.014,1.763,1.762A25.687,25.687,0,0,1,499.679,1188.6Zm63.1,32.716a14.762,14.762,0,0,1-20.931.3l-.216-.216a14.745,14.745,0,1,1,21.147-.086Z" transform="translate(514.121 -790.14)" fill="url(#a)"/></g></svg>